<svg width="998" height="495" viewBox="0 0 998 495" fill="none" xmlns="http://www.w3.org/2000/svg">
<path d="M13.5593 9.1992C13.5593 63.846 27.4174 110.827 27.4174 164.931V403.58C27.4174 430.54 21.3698 462.312 34.3465 485.801M5 22.383H301.654C423.675 22.383 548.399 28.5573 670.052 21.7392C774.478 15.8865 879.629 5 984.441 5M986.157 30.1948C986.157 71.4133 997.821 126.803 983.156 165.635C974.631 188.207 966.735 212.168 965.899 236.81C963.598 304.608 965.899 372.804 965.899 440.66M29.4556 483.964C166.907 483.964 303.88 490 441.598 490C626.148 490 809.348 465.855 993 465.855" stroke="white" stroke-width="10" stroke-linecap="round" stroke-linejoin="round"/>
</svg>
