<svg width="1014" height="163" viewBox="0 0 1014 163" fill="none" xmlns="http://www.w3.org/2000/svg">
<path d="M9.8269 5C9.8269 54.3264 21.5494 100.425 21.5494 149.118" stroke="white" stroke-width="10" stroke-linecap="round" stroke-linejoin="round"/>
<path d="M5 9.2741C51.5536 9.2741 97.9441 13.5482 144.211 13.5482C260.855 13.5482 375.449 17.5879 492.239 10.2239C598.115 3.5481 705.843 9.2741 812.06 9.2741C872.41 9.2741 931.419 5 991.761 5" stroke="white" stroke-width="10" stroke-linecap="round" stroke-linejoin="round"/>
<path d="M18.1016 157.393C245.142 157.393 472.14 150.623 698.719 139.56C802.637 134.486 904.78 123.604 1009 123.604" stroke="white" stroke-width="10" stroke-linecap="round" stroke-linejoin="round"/>
<path d="M995.209 5C995.209 25.342 995.209 45.6841 995.209 66.0261C995.209 78.2313 995.209 90.4365 995.209 102.642C995.209 112.672 1008.58 120.903 1004.92 127.052" stroke="white" stroke-width="10" stroke-linecap="round" stroke-linejoin="round"/>
</svg>
