<svg width="449" height="141" viewBox="0 0 449 141" fill="none" xmlns="http://www.w3.org/2000/svg">
<path d="M224.5 136C284.057 136 338.16 129.197 377.532 118.092C397.183 112.55 413.449 105.857 424.918 98.2092C436.199 90.6865 444 81.4212 444 70.5C444 59.5788 436.199 50.3135 424.918 42.7908C413.449 35.1429 397.183 28.4504 377.532 22.9078C338.16 11.803 284.057 5 224.5 5C164.943 5 110.84 11.803 71.4683 22.9078C51.8171 28.4504 35.5511 35.1429 24.0825 42.7908C12.8013 50.3135 5 59.5788 5 70.5C5 81.4212 12.8013 90.6865 24.0825 98.2092C35.5511 105.857 51.8171 112.55 71.4683 118.092C110.84 129.197 164.943 136 224.5 136Z" fill="white" stroke="black" stroke-width="10"/>
</svg>
